<mxfile host="app.diagrams.net" modified="2023-07-25T09:31:31.672Z" agent="Mozilla/5.0 (Windows NT 10.0; Win64; x64) AppleWebKit/537.36 (KHTML, like Gecko) Chrome/114.0.0.0 Safari/537.36 Edg/114.0.1823.82" version="21.6.5" etag="VILaCzcbvAwSJoKv-SIQ" type="github">
  <diagram name="Page-1" id="6EMBvqpKXnE4rjGUvo-7">
    <mxGraphModel>
      <root>
        <mxCell id="0" />
        <mxCell id="1" parent="0" />
      </root>
    </mxGraphModel>
  </diagram>
</mxfile>
